<svg xmlns="http://www.w3.org/2000/svg" xmlns:xlink="http://www.w3.org/1999/xlink" width="512" zoomAndPan="magnify" viewBox="0 0 384 383.999986" height="512" preserveAspectRatio="xMidYMid meet" version="1.0"><rect x="-38.4" width="460.8" fill="#ffffff" y="-38.399999" height="460.799983" fill-opacity="1"/><rect x="-38.4" width="460.8" fill="#6610f2" y="-38.399999" height="460.799983" fill-opacity="1"/><path fill="#ffd700" d="M 210.320312 192.171875 L 324.171875 60.171875 L 142.671875 192.171875 L 175.671875 192.171875 L 60.171875 324.171875 L 241.671875 192.171875 Z M 139.371094 208.671875 L 91.523438 208.671875 L 132.773438 178.972656 L 256.523438 88.222656 L 192.171875 60.171875 L 76.671875 109.671875 L 76.671875 159.171875 C 76.671875 192.171875 84.921875 223.523438 101.421875 251.570312 Z M 244.972656 175.671875 L 291.171875 175.671875 L 251.570312 205.371094 L 134.421875 291.171875 C 150.921875 306.023438 170.722656 317.570312 192.171875 324.171875 C 261.472656 299.421875 309.320312 233.421875 307.671875 159.171875 L 307.671875 109.671875 L 304.371094 108.023438 Z M 244.972656 175.671875 " fill-opacity="1" fill-rule="nonzero"/></svg>