<svg xmlns="http://www.w3.org/2000/svg" xmlns:xlink="http://www.w3.org/1999/xlink" width="500" zoomAndPan="magnify" viewBox="0 0 375 82.499998" height="110" preserveAspectRatio="xMidYMid meet" version="1.0"><defs><g/><clipPath id="2ef92aa75a"><path d="M 358 23 L 373.871094 23 L 373.871094 52 L 358 52 Z M 358 23 " clip-rule="nonzero"/></clipPath></defs><path fill="#ffd700" d="M 46.546875 40.914062 L 74.777344 8.183594 L 29.769531 40.914062 L 37.953125 40.914062 L 9.3125 73.648438 L 54.320312 40.914062 Z M 28.953125 45.007812 L 17.085938 45.007812 L 27.316406 37.640625 L 58 15.140625 L 42.042969 8.183594 L 13.402344 20.457031 L 13.402344 32.730469 C 13.402344 40.914062 15.449219 48.6875 19.542969 55.644531 Z M 55.136719 36.824219 L 66.59375 36.824219 L 56.773438 44.1875 L 27.722656 65.464844 C 31.816406 69.148438 36.726562 72.011719 42.042969 73.648438 C 59.230469 67.511719 71.09375 51.144531 70.6875 32.730469 L 70.6875 20.457031 L 69.867188 20.046875 Z M 55.136719 36.824219 " fill-opacity="1" fill-rule="nonzero"/><g fill="#ffd700" fill-opacity="1"><g transform="translate(97.971241, 51.136606)"><g><path d="M 27.5 0 L 22.265625 -18.375 L 17.03125 0 L 8.734375 0 L -0.59375 -32.734375 L 7.703125 -32.734375 L 13.296875 -10.28125 L 13.5 -10.28125 L 19.453125 -32.734375 L 25.078125 -32.734375 L 31.03125 -10.28125 L 31.234375 -10.28125 L 36.828125 -32.734375 L 45.078125 -32.734375 L 35.765625 0 Z M 27.5 0 "/></g></g></g><g fill="#ffd700" fill-opacity="1"><g transform="translate(142.466515, 51.136606)"><g><path d="M 2.375 -32.734375 L 14.328125 -32.734375 C 17.660156 -32.734375 20.359375 -31.875 22.421875 -30.15625 C 24.484375 -28.4375 25.515625 -25.9375 25.515625 -22.65625 C 25.515625 -19.375 24.46875 -16.800781 22.375 -14.9375 C 20.289062 -13.070312 17.609375 -12.140625 14.328125 -12.140625 L 9.84375 -12.140625 L 9.84375 0 L 2.375 0 Z M 9.84375 -18.09375 L 11.953125 -18.09375 C 13.617188 -18.09375 14.984375 -18.429688 16.046875 -19.109375 C 17.117188 -19.785156 17.65625 -20.890625 17.65625 -22.421875 C 17.65625 -23.984375 17.117188 -25.097656 16.046875 -25.765625 C 14.984375 -26.441406 13.617188 -26.78125 11.953125 -26.78125 L 9.84375 -26.78125 Z M 9.84375 -18.09375 "/></g></g></g><g fill="#ffd700" fill-opacity="1"><g transform="translate(168.901703, 51.136606)"><g/></g></g><g fill="#ffd700" fill-opacity="1"><g transform="translate(179.737734, 51.136606)"><g><path d="M 27.546875 -32.734375 L 27.546875 -11.625 C 27.546875 -7.601562 26.457031 -4.5625 24.28125 -2.5 C 22.113281 -0.4375 18.941406 0.59375 14.765625 0.59375 C 10.585938 0.59375 7.410156 -0.4375 5.234375 -2.5 C 3.066406 -4.5625 1.984375 -7.601562 1.984375 -11.625 L 1.984375 -32.734375 L 9.453125 -32.734375 L 9.453125 -13.8125 C 9.453125 -11.164062 9.867188 -9.328125 10.703125 -8.296875 C 11.535156 -7.265625 12.890625 -6.75 14.765625 -6.75 C 16.640625 -6.75 17.992188 -7.265625 18.828125 -8.296875 C 19.660156 -9.328125 20.078125 -11.164062 20.078125 -13.8125 L 20.078125 -32.734375 Z M 27.546875 -32.734375 "/></g></g></g><g fill="#ffd700" fill-opacity="1"><g transform="translate(209.268981, 51.136606)"><g><path d="M 2.375 0 L 2.375 -34.125 L 9.40625 -34.125 L 9.40625 0 Z M 2.375 0 "/></g></g></g><g fill="#ffd700" fill-opacity="1"><g transform="translate(221.057657, 51.136606)"><g><path d="M 3.578125 -20.359375 L 3.578125 -27.9375 L 10.59375 -27.9375 L 10.59375 -20.359375 L 14.875 -20.359375 L 14.875 -15 L 10.59375 -15 L 10.59375 -8.53125 C 10.59375 -6.65625 11.125 -5.71875 12.1875 -5.71875 C 12.445312 -5.71875 12.722656 -5.769531 13.015625 -5.875 C 13.304688 -5.976562 13.53125 -6.082031 13.6875 -6.1875 L 13.9375 -6.34375 L 15.671875 -0.671875 C 14.171875 0.171875 12.453125 0.59375 10.515625 0.59375 C 9.191406 0.59375 8.050781 0.363281 7.09375 -0.09375 C 6.144531 -0.5625 5.425781 -1.1875 4.9375 -1.96875 C 4.445312 -2.75 4.097656 -3.566406 3.890625 -4.421875 C 3.679688 -5.285156 3.578125 -6.207031 3.578125 -7.1875 L 3.578125 -15 L 0.640625 -15 L 0.640625 -20.359375 Z M 3.578125 -20.359375 "/></g></g></g><g fill="#ffd700" fill-opacity="1"><g transform="translate(236.736205, 51.136606)"><g><path d="M 3.046875 -31.703125 C 3.867188 -32.523438 4.847656 -32.9375 5.984375 -32.9375 C 7.128906 -32.9375 8.109375 -32.523438 8.921875 -31.703125 C 9.742188 -30.890625 10.15625 -29.910156 10.15625 -28.765625 C 10.15625 -27.628906 9.742188 -26.648438 8.921875 -25.828125 C 8.109375 -25.015625 7.128906 -24.609375 5.984375 -24.609375 C 4.847656 -24.609375 3.867188 -25.015625 3.046875 -25.828125 C 2.234375 -26.648438 1.828125 -27.628906 1.828125 -28.765625 C 1.828125 -29.910156 2.234375 -30.890625 3.046875 -31.703125 Z M 2.375 -20.359375 L 2.375 0 L 9.40625 0 L 9.40625 -20.359375 Z M 2.375 -20.359375 "/></g></g></g><g fill="#ffd700" fill-opacity="1"><g transform="translate(248.723335, 51.136606)"><g><path d="M 2.375 0 L 2.375 -20.359375 L 9.40625 -20.359375 L 9.40625 -18.21875 L 9.484375 -18.21875 C 11.304688 -20.039062 13.25 -20.953125 15.3125 -20.953125 C 16.800781 -20.953125 18.191406 -20.644531 19.484375 -20.03125 C 20.785156 -19.425781 21.765625 -18.488281 22.421875 -17.21875 C 24.484375 -19.707031 26.734375 -20.953125 29.171875 -20.953125 C 31.335938 -20.953125 33.203125 -20.34375 34.765625 -19.125 C 36.328125 -17.90625 37.109375 -16.003906 37.109375 -13.421875 L 37.109375 0 L 30.078125 0 L 30.078125 -11.515625 C 30.078125 -12.597656 29.78125 -13.5 29.1875 -14.21875 C 28.59375 -14.945312 27.703125 -15.3125 26.515625 -15.3125 C 25.484375 -15.3125 24.695312 -15 24.15625 -14.375 C 23.613281 -13.757812 23.3125 -13.015625 23.25 -12.140625 L 23.25 0 L 16.234375 0 L 16.234375 -11.515625 C 16.234375 -12.597656 15.9375 -13.5 15.34375 -14.21875 C 14.75 -14.945312 13.851562 -15.3125 12.65625 -15.3125 C 11.570312 -15.3125 10.757812 -14.972656 10.21875 -14.296875 C 9.675781 -13.628906 9.40625 -12.832031 9.40625 -11.90625 L 9.40625 0 Z M 2.375 0 "/></g></g></g><g fill="#ffd700" fill-opacity="1"><g transform="translate(287.820453, 51.136606)"><g><path d="M 3.765625 -2.515625 C 1.859375 -4.597656 0.90625 -7.144531 0.90625 -10.15625 C 0.90625 -13.175781 1.859375 -15.726562 3.765625 -17.8125 C 5.671875 -19.90625 8.09375 -20.953125 11.03125 -20.953125 C 13.726562 -20.953125 15.953125 -20.109375 17.703125 -18.421875 L 17.703125 -20.359375 L 24.71875 -20.359375 L 24.71875 0 L 17.78125 0 L 17.78125 -2.296875 L 17.703125 -2.296875 C 15.953125 -0.367188 13.726562 0.59375 11.03125 0.59375 C 8.09375 0.59375 5.671875 -0.441406 3.765625 -2.515625 Z M 9.734375 -13.609375 C 8.828125 -12.710938 8.375 -11.5625 8.375 -10.15625 C 8.375 -8.757812 8.8125 -7.613281 9.6875 -6.71875 C 10.5625 -5.832031 11.710938 -5.390625 13.140625 -5.390625 C 14.515625 -5.390625 15.644531 -5.835938 16.53125 -6.734375 C 17.414062 -7.640625 17.859375 -8.78125 17.859375 -10.15625 C 17.859375 -11.5625 17.398438 -12.710938 16.484375 -13.609375 C 15.578125 -14.515625 14.460938 -14.96875 13.140625 -14.96875 C 11.785156 -14.96875 10.648438 -14.515625 9.734375 -13.609375 Z M 9.734375 -13.609375 "/></g></g></g><g fill="#ffd700" fill-opacity="1"><g transform="translate(314.930442, 51.136606)"><g><path d="M 32.1875 0 L 21.90625 0 L 9.84375 -13.890625 L 9.84375 0 L 2.375 0 L 2.375 -32.734375 L 9.84375 -32.734375 L 9.84375 -19.375 L 21.078125 -32.734375 L 30.125 -32.734375 L 16.953125 -17.21875 Z M 32.1875 0 "/></g></g></g><g fill="#ffd700" fill-opacity="1"><g transform="translate(346.168426, 51.136606)"><g><path d="M 3.046875 -31.703125 C 3.867188 -32.523438 4.847656 -32.9375 5.984375 -32.9375 C 7.128906 -32.9375 8.109375 -32.523438 8.921875 -31.703125 C 9.742188 -30.890625 10.15625 -29.910156 10.15625 -28.765625 C 10.15625 -27.628906 9.742188 -26.648438 8.921875 -25.828125 C 8.109375 -25.015625 7.128906 -24.609375 5.984375 -24.609375 C 4.847656 -24.609375 3.867188 -25.015625 3.046875 -25.828125 C 2.234375 -26.648438 1.828125 -27.628906 1.828125 -28.765625 C 1.828125 -29.910156 2.234375 -30.890625 3.046875 -31.703125 Z M 2.375 -20.359375 L 2.375 0 L 9.40625 0 L 9.40625 -20.359375 Z M 2.375 -20.359375 "/></g></g></g><g clip-path="url(#2ef92aa75a)"><g fill="#ffd700" fill-opacity="1"><g transform="translate(358.155555, 51.136606)"><g><path d="M 3.578125 -20.359375 L 3.578125 -27.9375 L 10.59375 -27.9375 L 10.59375 -20.359375 L 14.875 -20.359375 L 14.875 -15 L 10.59375 -15 L 10.59375 -8.53125 C 10.59375 -6.65625 11.125 -5.71875 12.1875 -5.71875 C 12.445312 -5.71875 12.722656 -5.769531 13.015625 -5.875 C 13.304688 -5.976562 13.53125 -6.082031 13.6875 -6.1875 L 13.9375 -6.34375 L 15.671875 -0.671875 C 14.171875 0.171875 12.453125 0.59375 10.515625 0.59375 C 9.191406 0.59375 8.050781 0.363281 7.09375 -0.09375 C 6.144531 -0.5625 5.425781 -1.1875 4.9375 -1.96875 C 4.445312 -2.75 4.097656 -3.566406 3.890625 -4.421875 C 3.679688 -5.285156 3.578125 -6.207031 3.578125 -7.1875 L 3.578125 -15 L 0.640625 -15 L 0.640625 -20.359375 Z M 3.578125 -20.359375 "/></g></g></g></g></svg>